<svg width="30" height="30" viewBox="0 0 30 30" fill="none" xmlns="http://www.w3.org/2000/svg">
<path d="M23.7723 7.6355C23.7723 8.11897 23.5802 8.58263 23.2384 8.92449C22.8965 9.26636 22.4328 9.45841 21.9494 9.45841C21.4659 9.45841 21.0022 9.26636 20.6604 8.92449C20.3185 8.58263 20.1265 8.11897 20.1265 7.6355C20.1265 7.15203 20.3185 6.68836 20.6604 6.3465C21.0022 6.00464 21.4659 5.81258 21.9494 5.81258C22.4328 5.81258 22.8965 6.00464 23.2384 6.3465C23.5802 6.68836 23.7723 7.15203 23.7723 7.6355ZM19.7619 0.416748C17.229 0.418293 14.8003 1.42517 13.0092 3.2162C11.2182 5.00722 10.2113 7.43594 10.2098 9.96883C10.2098 10.5332 10.2827 11.0772 10.3702 11.5788C10.383 11.642 10.3804 11.7073 10.3627 11.7692C10.3449 11.8312 10.3125 11.8879 10.2681 11.9347L1.17542 21.0288C0.423221 21.7806 0.000420499 22.8004 0 23.8638V27.0313C0 28.4401 1.14333 29.5834 2.55208 29.5834H6.19792C6.87477 29.5834 7.5239 29.3145 8.00251 28.8359C8.48112 28.3573 8.75 27.7082 8.75 27.0313V25.2084H11.3035C12.3098 25.2084 13.1265 24.3917 13.1265 23.3855V20.8334H15.6785C16.1506 20.8337 16.6044 20.6509 16.9444 20.3234C17.2844 19.9959 17.4841 19.5493 17.5015 19.0776C18.2248 19.2642 18.989 19.3751 19.7619 19.3751C22.2948 19.3735 24.7235 18.3667 26.5145 16.5756C28.3055 14.7846 29.3124 12.3559 29.314 9.823C29.314 4.52779 25.0075 0.416748 19.7619 0.416748ZM12.3973 9.96883C12.3988 8.0161 13.1752 6.14378 14.556 4.76299C15.9368 3.3822 17.8091 2.60579 19.7619 2.60425C23.8481 2.60425 27.1265 5.78487 27.1265 9.823C27.1249 11.7757 26.3485 13.648 24.9677 15.0288C23.5869 16.4096 21.7146 17.186 19.7619 17.1876C18.7702 17.1876 17.7494 16.9382 16.8379 16.5459C16.6714 16.4744 16.4898 16.4454 16.3093 16.4614C16.1289 16.4775 15.9552 16.5381 15.804 16.6379C15.6527 16.7376 15.5287 16.8734 15.4429 17.033C15.3571 17.1926 15.3123 17.371 15.3125 17.5522V18.6459H12.7619C11.7556 18.6459 10.939 19.4626 10.939 20.4688V23.0209H8.38687C7.38062 23.0209 6.56396 23.8376 6.56396 24.8438V27.0313C6.56396 27.128 6.52555 27.2208 6.45717 27.2891C6.3888 27.3575 6.29607 27.3959 6.19937 27.3959H2.55354C2.45685 27.3959 2.36411 27.3575 2.29574 27.2891C2.22737 27.2208 2.18896 27.128 2.18896 27.0313V23.8638C2.18896 23.3811 2.38146 22.9159 2.72271 22.5747L11.8169 13.482C12.1096 13.1867 12.3268 12.8253 12.4502 12.4282C12.5736 12.0312 12.5995 11.6103 12.5256 11.2011C12.4474 10.7948 12.4044 10.3825 12.3973 9.96883Z" fill="#767676"/>
</svg>
